# This file uses centimeters as units for non-parametric coordinates.

mtllib egg.mtl
g default
v -1.637080 1.402312 1.637080
v 1.637080 1.402312 1.637080
v -1.520744 5.697482 1.520744
v 1.520744 5.697482 1.520744
v -1.520744 5.697482 -1.520744
v 1.520744 5.697482 -1.520744
v -1.637080 1.402312 -1.637080
v 1.637080 1.402312 -1.637080
v -1.877611 6.215111 -0.000000
v 2.055755 3.461935 -2.055755
v 0.000000 0.892075 -2.056345
v -2.055755 3.461935 -2.055755
v 2.056345 0.892075 -0.000000
v -2.056345 0.892075 0.000000
v 0.000000 0.892075 2.056345
v 2.055755 3.461935 2.055755
v 0.000000 6.215111 1.877610
v -2.055755 3.461935 2.055755
v 1.877610 6.215111 0.000000
v 0.000000 6.215111 -1.877610
v 0.000000 3.494620 2.795695
v 0.000000 7.414110 -0.000000
v 0.000000 3.494620 -2.795695
v 0.000000 0.172744 0.000000
v 2.795695 3.494620 0.000000
v -2.795695 3.494620 0.000000
v -1.055369 2.112450 2.470012
v 1.055369 2.112450 2.470012
v 1.001112 4.885579 2.343030
v -1.001113 4.885579 2.343030
v -0.941395 6.810967 0.941395
v 0.941395 6.810967 0.941395
v 0.941395 6.810967 -0.941395
v -0.941395 6.810967 -0.941395
v -1.001113 4.885579 -2.343030
v 1.001113 4.885579 -2.343030
v 1.055369 2.112450 -2.470012
v -1.055369 2.112450 -2.470012
v -1.023246 0.496779 -1.023246
v 1.023246 0.496779 -1.023246
v 1.023246 0.496779 1.023246
v -1.023246 0.496779 1.023246
v 2.470012 2.112450 1.055369
v 2.470012 2.112450 -1.055369
v 2.343030 4.885579 -1.001112
v 2.343030 4.885579 1.001112
v -2.470012 2.112450 -1.055369
v -2.470012 2.112450 1.055369
v -2.343030 4.885579 1.001112
v -2.343030 4.885579 -1.001112
v -0.000000 2.015418 2.649649
v 1.118499 3.481755 2.613521
v 0.000000 4.983301 2.496699
v -1.118499 3.481755 2.613521
v 0.000000 7.076079 1.006028
v 1.006028 7.076079 0.000000
v 0.000000 7.076080 -1.006028
v -1.006028 7.076079 -0.000000
v -0.000000 4.983301 -2.496699
v 1.118499 3.481755 -2.613521
v 0.000000 2.015418 -2.649649
v -1.118499 3.481755 -2.613521
v -0.000000 0.313306 -1.094382
v 1.094382 0.313306 -0.000000
v 0.000000 0.313306 1.094382
v -1.094382 0.313306 0.000000
v 2.649649 2.015418 0.000000
v 2.613521 3.481755 -1.118499
v 2.496699 4.983301 -0.000000
v 2.613521 3.481755 1.118499
v -2.649649 2.015418 -0.000000
v -2.613521 3.481755 1.118499
v -2.496699 4.983301 0.000000
v -2.613521 3.481755 -1.118499
v -0.967016 1.058367 1.917360
v 0.967016 1.058367 1.917360
v 1.936714 2.205323 1.936713
v 1.849486 4.778275 1.849486
v 0.888970 6.049804 1.762613
v -0.888970 6.049804 1.762613
v -1.849486 4.778275 1.849486
v -1.936714 2.205323 1.936713
v 1.762613 6.049804 0.888970
v 1.762613 6.049804 -0.888970
v 0.888970 6.049804 -1.762613
v -0.888970 6.049804 -1.762613
v -1.762613 6.049804 -0.888970
v -1.762613 6.049804 0.888970
v 1.849486 4.778275 -1.849486
v 1.936713 2.205323 -1.936713
v 0.967016 1.058367 -1.917360
v -0.967016 1.058367 -1.917360
v -1.936713 2.205323 -1.936713
v -1.849486 4.778275 -1.849486
v 1.917360 1.058367 -0.967016
v 1.917360 1.058367 0.967016
v -1.917360 1.058367 0.967016
v -1.917360 1.058367 -0.967016
vt 0.390038 0.060150
vt 0.390038 0.939850
vt 0.609962 0.060150
vt 0.609962 0.939850
vt 0.390038 0.280075
vt 0.609962 0.280075
vt 0.390038 0.500000
vt 0.170113 0.280075
vt 0.609962 0.500000
vt 0.829887 0.280075
vt 0.390038 0.719925
vt 0.170113 0.060150
vt 0.609962 0.719925
vt 0.829887 0.060150
vt 0.500000 0.170113
vt 0.500000 0.390038
vt 0.500000 0.609962
vt 0.500000 0.829887
vt 0.719925 0.170113
vt 0.280075 0.170113
vt 0.500000 0.060150
vt 0.500000 0.939850
vt 0.609962 0.170113
vt 0.500000 0.280075
vt 0.390038 0.170113
vt 0.609962 0.390038
vt 0.719925 0.280075
vt 0.500000 0.500000
vt 0.390038 0.390038
vt 0.280075 0.280075
vt 0.609962 0.609962
vt 0.829887 0.170113
vt 0.500000 0.719925
vt 0.390038 0.609962
vt 0.170113 0.170113
vt 0.609962 0.829887
vt 0.719925 0.060150
vt 0.390038 0.829887
vt 0.280075 0.060150
vt 0.445019 0.115132
vt 0.554981 0.115132
vt 0.554981 0.225094
vt 0.445019 0.225094
vt 0.445019 0.335056
vt 0.554981 0.335056
vt 0.554981 0.445019
vt 0.445019 0.445019
vt 0.445019 0.554981
vt 0.554981 0.554981
vt 0.554981 0.664944
vt 0.445019 0.664944
vt 0.445019 0.774906
vt 0.554981 0.774906
vt 0.554981 0.884868
vt 0.445019 0.884868
vt 0.664944 0.115132
vt 0.774906 0.115132
vt 0.774906 0.225094
vt 0.664944 0.225094
vt 0.225094 0.115132
vt 0.335056 0.115132
vt 0.335056 0.225094
vt 0.225094 0.225094
vt 0.500000 0.115132
vt 0.554981 0.170113
vt 0.500000 0.225094
vt 0.445019 0.170113
vt 0.500000 0.335056
vt 0.554981 0.390038
vt 0.500000 0.445019
vt 0.445019 0.390038
vt 0.500000 0.554981
vt 0.554981 0.609962
vt 0.500000 0.664944
vt 0.445019 0.609962
vt 0.500000 0.774906
vt 0.554981 0.829887
vt 0.500000 0.884868
vt 0.445019 0.829887
vt 0.719925 0.115132
vt 0.774906 0.170113
vt 0.719925 0.225094
vt 0.664944 0.170113
vt 0.280075 0.115132
vt 0.335056 0.170113
vt 0.280075 0.225094
vt 0.225094 0.170113
vt 0.445019 0.060150
vt 0.445019 0.939850
vt 0.554981 0.060150
vt 0.554981 0.939850
vt 0.609962 0.115132
vt 0.609962 0.225094
vt 0.554981 0.280075
vt 0.445019 0.280075
vt 0.390038 0.225094
vt 0.390038 0.115132
vt 0.609962 0.335056
vt 0.664944 0.280075
vt 0.609962 0.445019
vt 0.774906 0.280075
vt 0.554981 0.500000
vt 0.445019 0.500000
vt 0.390038 0.445019
vt 0.225094 0.280075
vt 0.390038 0.335056
vt 0.335056 0.280075
vt 0.609962 0.554981
vt 0.829887 0.225094
vt 0.609962 0.664944
vt 0.829887 0.115132
vt 0.554981 0.719925
vt 0.445019 0.719925
vt 0.390038 0.664944
vt 0.170113 0.115132
vt 0.390038 0.554981
vt 0.170113 0.225094
vt 0.609962 0.774906
vt 0.774906 0.060150
vt 0.609962 0.884868
vt 0.664944 0.060150
vt 0.390038 0.884868
vt 0.335056 0.060150
vt 0.390038 0.774906
vt 0.225094 0.060150
vn -0.510987 -0.444431 0.735780
vn -0.510987 -0.444431 0.735780
vn -0.510987 -0.444431 0.735781
vn -0.510987 -0.444431 0.735780
vn -0.196450 -0.462883 0.864376
vn -0.196451 -0.462883 0.864376
vn -0.196451 -0.462883 0.864376
vn -0.196451 -0.462883 0.864376
vn -0.167191 -0.103374 0.980490
vn -0.167191 -0.103374 0.980490
vn -0.167191 -0.103374 0.980490
vn -0.167191 -0.103374 0.980490
vn -0.514266 -0.120575 0.849112
vn -0.514266 -0.120575 0.849112
vn -0.514266 -0.120575 0.849112
vn -0.514266 -0.120575 0.849112
vn 0.196450 -0.462883 0.864376
vn 0.196450 -0.462883 0.864376
vn 0.196450 -0.462883 0.864376
vn 0.196450 -0.462883 0.864376
vn 0.510987 -0.444431 0.735780
vn 0.510987 -0.444431 0.735780
vn 0.510987 -0.444431 0.735780
vn 0.510987 -0.444431 0.735780
vn 0.514266 -0.120575 0.849113
vn 0.514266 -0.120575 0.849113
vn 0.514266 -0.120575 0.849113
vn 0.514266 -0.120575 0.849113
vn 0.167191 -0.103374 0.980490
vn 0.167191 -0.103374 0.980490
vn 0.167191 -0.103374 0.980490
vn 0.167191 -0.103374 0.980490
vn 0.163444 0.196959 0.966692
vn 0.163444 0.196959 0.966692
vn 0.163444 0.196959 0.966692
vn 0.163444 0.196959 0.966692
vn 0.507271 0.206980 0.836562
vn 0.507271 0.206980 0.836562
vn 0.507271 0.206980 0.836562
vn 0.507271 0.206980 0.836562
vn 0.505319 0.432727 0.746592
vn 0.505319 0.432727 0.746592
vn 0.505319 0.432727 0.746592
vn 0.505319 0.432727 0.746592
vn 0.186549 0.446767 0.874985
vn 0.186549 0.446767 0.874985
vn 0.186549 0.446767 0.874985
vn 0.186549 0.446767 0.874985
vn -0.507271 0.206980 0.836562
vn -0.507271 0.206980 0.836562
vn -0.507271 0.206980 0.836562
vn -0.507271 0.206980 0.836562
vn -0.163444 0.196959 0.966692
vn -0.163444 0.196959 0.966692
vn -0.163444 0.196959 0.966692
vn -0.163444 0.196959 0.966692
vn -0.186548 0.446767 0.874985
vn -0.186549 0.446767 0.874985
vn -0.186548 0.446767 0.874985
vn -0.186548 0.446767 0.874985
vn -0.505319 0.432727 0.746592
vn -0.505318 0.432727 0.746592
vn -0.505319 0.432727 0.746592
vn -0.505319 0.432727 0.746592
vn -0.569538 0.592665 0.569538
vn -0.569538 0.592665 0.569538
vn -0.569538 0.592665 0.569538
vn -0.569538 0.592665 0.569538
vn -0.230792 0.698945 0.676913
vn -0.230792 0.698945 0.676913
vn -0.230792 0.698945 0.676913
vn -0.230792 0.698945 0.676913
vn -0.291797 0.910883 0.291797
vn -0.291797 0.910883 0.291797
vn -0.291797 0.910883 0.291797
vn -0.291797 0.910883 0.291797
vn -0.676913 0.698945 0.230792
vn -0.676913 0.698945 0.230792
vn -0.676913 0.698945 0.230792
vn -0.676913 0.698945 0.230792
vn 0.230792 0.698945 0.676913
vn 0.230792 0.698945 0.676913
vn 0.230792 0.698945 0.676913
vn 0.230792 0.698945 0.676913
vn 0.569538 0.592665 0.569538
vn 0.569538 0.592665 0.569538
vn 0.569538 0.592665 0.569538
vn 0.569538 0.592665 0.569538
vn 0.676913 0.698945 0.230792
vn 0.676913 0.698945 0.230792
vn 0.676913 0.698945 0.230792
vn 0.676913 0.698945 0.230792
vn 0.291797 0.910883 0.291797
vn 0.291797 0.910883 0.291797
vn 0.291797 0.910883 0.291797
vn 0.291797 0.910883 0.291797
vn 0.291797 0.910884 -0.291797
vn 0.291797 0.910884 -0.291797
vn 0.291797 0.910884 -0.291797
vn 0.291797 0.910884 -0.291797
vn 0.676913 0.698945 -0.230792
vn 0.676913 0.698945 -0.230792
vn 0.676913 0.698945 -0.230792
vn 0.676913 0.698945 -0.230792
vn 0.569538 0.592665 -0.569538
vn 0.569538 0.592665 -0.569538
vn 0.569538 0.592665 -0.569538
vn 0.569538 0.592665 -0.569538
vn 0.230792 0.698944 -0.676913
vn 0.230792 0.698944 -0.676913
vn 0.230792 0.698944 -0.676913
vn 0.230792 0.698944 -0.676913
vn -0.676913 0.698945 -0.230792
vn -0.676913 0.698945 -0.230792
vn -0.676913 0.698945 -0.230792
vn -0.676913 0.698945 -0.230792
vn -0.291797 0.910884 -0.291797
vn -0.291797 0.910884 -0.291797
vn -0.291797 0.910884 -0.291797
vn -0.291797 0.910884 -0.291797
vn -0.230792 0.698944 -0.676913
vn -0.230792 0.698944 -0.676913
vn -0.230792 0.698944 -0.676913
vn -0.230792 0.698944 -0.676914
vn -0.569538 0.592665 -0.569538
vn -0.569538 0.592665 -0.569538
vn -0.569538 0.592665 -0.569538
vn -0.569538 0.592665 -0.569538
vn -0.505319 0.432727 -0.746593
vn -0.505318 0.432727 -0.746593
vn -0.505319 0.432727 -0.746593
vn -0.505319 0.432727 -0.746593
vn -0.186548 0.446767 -0.874985
vn -0.186548 0.446767 -0.874985
vn -0.186548 0.446767 -0.874985
vn -0.186548 0.446767 -0.874985
vn -0.163444 0.196959 -0.966692
vn -0.163444 0.196959 -0.966692
vn -0.163444 0.196959 -0.966692
vn -0.163444 0.196959 -0.966692
vn -0.507271 0.206980 -0.836562
vn -0.507271 0.206980 -0.836562
vn -0.507271 0.206980 -0.836562
vn -0.507271 0.206980 -0.836562
vn 0.186548 0.446767 -0.874985
vn 0.186548 0.446767 -0.874985
vn 0.186548 0.446767 -0.874985
vn 0.186548 0.446767 -0.874985
vn 0.505319 0.432727 -0.746592
vn 0.505319 0.432727 -0.746592
vn 0.505319 0.432727 -0.746592
vn 0.505319 0.432727 -0.746592
vn 0.507271 0.206980 -0.836562
vn 0.507271 0.206980 -0.836562
vn 0.507271 0.206980 -0.836562
vn 0.507271 0.206980 -0.836562
vn 0.163444 0.196959 -0.966692
vn 0.163444 0.196959 -0.966692
vn 0.163444 0.196959 -0.966692
vn 0.163444 0.196959 -0.966692
vn 0.167191 -0.103374 -0.980490
vn 0.167191 -0.103374 -0.980490
vn 0.167191 -0.103374 -0.980490
vn 0.167191 -0.103374 -0.980490
vn 0.514266 -0.120575 -0.849112
vn 0.514266 -0.120575 -0.849112
vn 0.514266 -0.120575 -0.849112
vn 0.514266 -0.120575 -0.849112
vn 0.510987 -0.444431 -0.735781
vn 0.510987 -0.444431 -0.735780
vn 0.510987 -0.444431 -0.735781
vn 0.510987 -0.444431 -0.735780
vn 0.196450 -0.462883 -0.864376
vn 0.196450 -0.462883 -0.864376
vn 0.196450 -0.462883 -0.864376
vn 0.196450 -0.462883 -0.864376
vn -0.514266 -0.120575 -0.849112
vn -0.514266 -0.120575 -0.849112
vn -0.514266 -0.120575 -0.849112
vn -0.514266 -0.120575 -0.849112
vn -0.167191 -0.103374 -0.980490
vn -0.167191 -0.103374 -0.980490
vn -0.167191 -0.103374 -0.980490
vn -0.167191 -0.103374 -0.980490
vn -0.196451 -0.462883 -0.864376
vn -0.196451 -0.462883 -0.864376
vn -0.196451 -0.462883 -0.864376
vn -0.196451 -0.462883 -0.864376
vn -0.510987 -0.444431 -0.735781
vn -0.510987 -0.444431 -0.735781
vn -0.510987 -0.444431 -0.735781
vn -0.510987 -0.444431 -0.735781
vn -0.510441 -0.692026 -0.510441
vn -0.510441 -0.692026 -0.510441
vn -0.510441 -0.692026 -0.510441
vn -0.510441 -0.692026 -0.510441
vn -0.200812 -0.831955 -0.517229
vn -0.200812 -0.831955 -0.517229
vn -0.200812 -0.831955 -0.517229
vn -0.200812 -0.831955 -0.517229
vn -0.154511 -0.975834 -0.154511
vn -0.154511 -0.975834 -0.154511
vn -0.154511 -0.975834 -0.154511
vn -0.154511 -0.975835 -0.154511
vn -0.517229 -0.831955 -0.200812
vn -0.517229 -0.831955 -0.200812
vn -0.517229 -0.831955 -0.200812
vn -0.517229 -0.831955 -0.200812
vn 0.200812 -0.831955 -0.517229
vn 0.200812 -0.831955 -0.517229
vn 0.200812 -0.831955 -0.517229
vn 0.200812 -0.831955 -0.517229
vn 0.510441 -0.692026 -0.510441
vn 0.510441 -0.692026 -0.510441
vn 0.510441 -0.692026 -0.510441
vn 0.510441 -0.692026 -0.510441
vn 0.517229 -0.831955 -0.200812
vn 0.517229 -0.831955 -0.200812
vn 0.517229 -0.831955 -0.200812
vn 0.517229 -0.831955 -0.200812
vn 0.154511 -0.975834 -0.154510
vn 0.154511 -0.975835 -0.154511
vn 0.154511 -0.975835 -0.154511
vn 0.154511 -0.975835 -0.154510
vn 0.154511 -0.975834 0.154510
vn 0.154511 -0.975834 0.154510
vn 0.154511 -0.975834 0.154510
vn 0.154511 -0.975834 0.154510
vn 0.517229 -0.831955 0.200812
vn 0.517229 -0.831955 0.200812
vn 0.517229 -0.831955 0.200812
vn 0.517229 -0.831955 0.200812
vn 0.510441 -0.692026 0.510441
vn 0.510441 -0.692026 0.510441
vn 0.510441 -0.692026 0.510441
vn 0.510441 -0.692026 0.510441
vn 0.200812 -0.831955 0.517229
vn 0.200812 -0.831955 0.517229
vn 0.200812 -0.831955 0.517229
vn 0.200812 -0.831955 0.517229
vn -0.517229 -0.831955 0.200812
vn -0.517229 -0.831955 0.200812
vn -0.517229 -0.831955 0.200812
vn -0.517229 -0.831955 0.200812
vn -0.154511 -0.975834 0.154510
vn -0.154511 -0.975835 0.154510
vn -0.154511 -0.975834 0.154510
vn -0.154511 -0.975834 0.154510
vn -0.200812 -0.831955 0.517229
vn -0.200812 -0.831955 0.517229
vn -0.200812 -0.831955 0.517229
vn -0.200812 -0.831955 0.517229
vn -0.510441 -0.692026 0.510441
vn -0.510441 -0.692026 0.510441
vn -0.510441 -0.692026 0.510441
vn -0.510441 -0.692026 0.510441
vn 0.735781 -0.444431 0.510987
vn 0.735781 -0.444431 0.510987
vn 0.735781 -0.444431 0.510987
vn 0.735780 -0.444431 0.510987
vn 0.864376 -0.462883 0.196450
vn 0.864376 -0.462883 0.196450
vn 0.864376 -0.462883 0.196450
vn 0.864376 -0.462883 0.196450
vn 0.980490 -0.103374 0.167191
vn 0.980490 -0.103374 0.167191
vn 0.980490 -0.103374 0.167191
vn 0.980490 -0.103374 0.167191
vn 0.849113 -0.120575 0.514266
vn 0.849113 -0.120575 0.514266
vn 0.849113 -0.120575 0.514266
vn 0.849113 -0.120575 0.514266
vn 0.864376 -0.462883 -0.196450
vn 0.864376 -0.462883 -0.196450
vn 0.864376 -0.462883 -0.196450
vn 0.864376 -0.462883 -0.196450
vn 0.735781 -0.444431 -0.510987
vn 0.735781 -0.444431 -0.510987
vn 0.735781 -0.444431 -0.510987
vn 0.735781 -0.444431 -0.510987
vn 0.849112 -0.120575 -0.514266
vn 0.849112 -0.120575 -0.514266
vn 0.849112 -0.120575 -0.514266
vn 0.849112 -0.120575 -0.514266
vn 0.980490 -0.103374 -0.167191
vn 0.980490 -0.103374 -0.167191
vn 0.980490 -0.103374 -0.167191
vn 0.980490 -0.103374 -0.167191
vn 0.966692 0.196959 -0.163444
vn 0.966692 0.196959 -0.163444
vn 0.966692 0.196959 -0.163444
vn 0.966692 0.196959 -0.163444
vn 0.836562 0.206980 -0.507271
vn 0.836562 0.206980 -0.507271
vn 0.836562 0.206980 -0.507271
vn 0.836562 0.206980 -0.507271
vn 0.746592 0.432727 -0.505319
vn 0.746592 0.432727 -0.505319
vn 0.746592 0.432727 -0.505319
vn 0.746592 0.432727 -0.505319
vn 0.874985 0.446767 -0.186549
vn 0.874985 0.446767 -0.186549
vn 0.874985 0.446767 -0.186549
vn 0.874985 0.446767 -0.186549
vn 0.836562 0.206980 0.507271
vn 0.836562 0.206980 0.507271
vn 0.836562 0.206980 0.507271
vn 0.836562 0.206980 0.507271
vn 0.966692 0.196958 0.163444
vn 0.966692 0.196958 0.163444
vn 0.966692 0.196958 0.163444
vn 0.966692 0.196958 0.163444
vn 0.874985 0.446767 0.186548
vn 0.874985 0.446767 0.186548
vn 0.874985 0.446767 0.186548
vn 0.874985 0.446767 0.186548
vn 0.746592 0.432727 0.505319
vn 0.746592 0.432727 0.505319
vn 0.746592 0.432727 0.505319
vn 0.746592 0.432727 0.505319
vn -0.735780 -0.444431 -0.510987
vn -0.735780 -0.444431 -0.510987
vn -0.735780 -0.444431 -0.510987
vn -0.735780 -0.444431 -0.510987
vn -0.864376 -0.462883 -0.196450
vn -0.864376 -0.462883 -0.196450
vn -0.864376 -0.462883 -0.196450
vn -0.864376 -0.462883 -0.196450
vn -0.980490 -0.103374 -0.167191
vn -0.980490 -0.103374 -0.167191
vn -0.980490 -0.103374 -0.167191
vn -0.980490 -0.103374 -0.167191
vn -0.849113 -0.120575 -0.514266
vn -0.849113 -0.120575 -0.514266
vn -0.849113 -0.120575 -0.514266
vn -0.849113 -0.120575 -0.514266
vn -0.864376 -0.462883 0.196450
vn -0.864376 -0.462883 0.196450
vn -0.864376 -0.462883 0.196450
vn -0.864376 -0.462883 0.196450
vn -0.735781 -0.444431 0.510987
vn -0.735781 -0.444431 0.510987
vn -0.735781 -0.444431 0.510987
vn -0.735781 -0.444431 0.510987
vn -0.849112 -0.120575 0.514266
vn -0.849113 -0.120575 0.514266
vn -0.849113 -0.120575 0.514266
vn -0.849113 -0.120575 0.514266
vn -0.980490 -0.103374 0.167191
vn -0.980490 -0.103374 0.167191
vn -0.980490 -0.103374 0.167191
vn -0.980490 -0.103374 0.167191
vn -0.966692 0.196959 0.163444
vn -0.966692 0.196959 0.163444
vn -0.966692 0.196959 0.163444
vn -0.966692 0.196959 0.163444
vn -0.836562 0.206980 0.507271
vn -0.836562 0.206980 0.507271
vn -0.836562 0.206980 0.507271
vn -0.836562 0.206980 0.507271
vn -0.746593 0.432727 0.505319
vn -0.746593 0.432727 0.505319
vn -0.746592 0.432727 0.505319
vn -0.746593 0.432727 0.505319
vn -0.874985 0.446767 0.186549
vn -0.874985 0.446767 0.186549
vn -0.874985 0.446767 0.186549
vn -0.874985 0.446767 0.186549
vn -0.836562 0.206980 -0.507271
vn -0.836562 0.206980 -0.507271
vn -0.836562 0.206980 -0.507271
vn -0.836562 0.206980 -0.507271
vn -0.966692 0.196959 -0.163444
vn -0.966692 0.196959 -0.163444
vn -0.966692 0.196959 -0.163444
vn -0.966692 0.196959 -0.163444
vn -0.874985 0.446767 -0.186549
vn -0.874985 0.446767 -0.186549
vn -0.874985 0.446767 -0.186549
vn -0.874985 0.446767 -0.186549
vn -0.746593 0.432727 -0.505318
vn -0.746593 0.432727 -0.505318
vn -0.746593 0.432727 -0.505318
vn -0.746593 0.432727 -0.505318
s off
g egg_0
usemtl initialShadingGroup
f 1/1/1 75/88/2 27/40/3 82/97/4
f 75/88/5 15/21/6 51/64/7 27/40/8
f 27/40/9 51/64/10 21/15/11 54/67/12
f 82/97/13 27/40/14 54/67/15 18/25/16
f 15/21/17 76/90/18 28/41/19 51/64/20
f 76/90/21 2/3/22 77/92/23 28/41/24
f 28/41/25 77/92/26 16/23/27 52/65/28
f 51/64/29 28/41/30 52/65/31 21/15/32
f 21/15/33 52/65/34 29/42/35 53/66/36
f 52/65/37 16/23/38 78/93/39 29/42/40
f 29/42/41 78/93/42 4/6/43 79/94/44
f 53/66/45 29/42/46 79/94/47 17/24/48
f 18/25/49 54/67/50 30/43/51 81/96/52
f 54/67/53 21/15/54 53/66/55 30/43/56
f 30/43/57 53/66/58 17/24/59 80/95/60
f 81/96/61 30/43/62 80/95/63 3/5/64
f 3/5/65 80/95/66 31/44/67 88/106/68
f 80/95/69 17/24/70 55/68/71 31/44/72
f 31/44/73 55/68/74 22/16/75 58/71/76
f 88/106/77 31/44/78 58/71/79 9/29/80
f 17/24/81 79/94/82 32/45/83 55/68/84
f 79/94/85 4/6/86 83/98/87 32/45/88
f 32/45/89 83/98/90 19/26/91 56/69/92
f 55/68/93 32/45/94 56/69/95 22/16/96
f 22/16/97 56/69/98 33/46/99 57/70/100
f 56/69/101 19/26/102 84/100/103 33/46/104
f 33/46/105 84/100/106 6/9/107 85/102/108
f 57/70/109 33/46/110 85/102/111 20/28/112
f 9/29/113 58/71/114 34/47/115 87/104/116
f 58/71/117 22/16/118 57/70/119 34/47/120
f 34/47/121 57/70/122 20/28/123 86/103/124
f 87/104/125 34/47/126 86/103/127 5/7/128
f 5/7/129 86/103/130 35/48/131 94/116/132
f 86/103/133 20/28/134 59/72/135 35/48/136
f 35/48/137 59/72/138 23/17/139 62/75/140
f 94/116/141 35/48/142 62/75/143 12/34/144
f 20/28/145 85/102/146 36/49/147 59/72/148
f 85/102/149 6/9/150 89/108/151 36/49/152
f 36/49/153 89/108/154 10/31/155 60/73/156
f 59/72/157 36/49/158 60/73/159 23/17/160
f 23/17/161 60/73/162 37/50/163 61/74/164
f 60/73/165 10/31/166 90/110/167 37/50/168
f 37/50/169 90/110/170 8/13/171 91/112/172
f 61/74/173 37/50/174 91/112/175 11/33/176
f 12/34/177 62/75/178 38/51/179 93/114/180
f 62/75/181 23/17/182 61/74/183 38/51/184
f 38/51/185 61/74/186 11/33/187 92/113/188
f 93/114/189 38/51/190 92/113/191 7/11/192
f 7/11/193 92/113/194 39/52/195 98/124/196
f 92/113/197 11/33/198 63/76/199 39/52/200
f 39/52/201 63/76/202 24/18/203 66/79/204
f 98/124/205 39/52/206 66/79/207 14/38/208
f 11/33/209 91/112/210 40/53/211 63/76/212
f 91/112/213 8/13/214 95/118/215 40/53/216
f 40/53/217 95/118/218 13/36/219 64/77/220
f 63/76/221 40/53/222 64/77/223 24/18/224
f 24/18/225 64/77/226 41/54/227 65/78/228
f 64/77/229 13/36/230 96/120/231 41/54/232
f 41/54/233 96/120/234 2/4/235 76/91/236
f 65/78/237 41/54/238 76/91/239 15/22/240
f 14/38/241 66/79/242 42/55/243 97/122/244
f 66/79/245 24/18/246 65/78/247 42/55/248
f 42/55/249 65/78/250 15/22/251 75/89/252
f 97/122/253 42/55/254 75/89/255 1/2/256
f 2/3/257 96/121/258 43/56/259 77/92/260
f 96/121/261 13/37/262 67/80/263 43/56/264
f 43/56/265 67/80/266 25/19/267 70/83/268
f 77/92/269 43/56/270 70/83/271 16/23/272
f 13/37/273 95/119/274 44/57/275 67/80/276
f 95/119/277 8/14/278 90/111/279 44/57/280
f 44/57/281 90/111/282 10/32/283 68/81/284
f 67/80/285 44/57/286 68/81/287 25/19/288
f 25/19/289 68/81/290 45/58/291 69/82/292
f 68/81/293 10/32/294 89/109/295 45/58/296
f 45/58/297 89/109/298 6/10/299 84/101/300
f 69/82/301 45/58/302 84/101/303 19/27/304
f 16/23/305 70/83/306 46/59/307 78/93/308
f 70/83/309 25/19/310 69/82/311 46/59/312
f 46/59/313 69/82/314 19/27/315 83/99/316
f 78/93/317 46/59/318 83/99/319 4/6/320
f 7/12/321 98/125/322 47/60/323 93/115/324
f 98/125/325 14/39/326 71/84/327 47/60/328
f 47/60/329 71/84/330 26/20/331 74/87/332
f 93/115/333 47/60/334 74/87/335 12/35/336
f 14/39/337 97/123/338 48/61/339 71/84/340
f 97/123/341 1/1/342 82/97/343 48/61/344
f 48/61/345 82/97/346 18/25/347 72/85/348
f 71/84/349 48/61/350 72/85/351 26/20/352
f 26/20/353 72/85/354 49/62/355 73/86/356
f 72/85/357 18/25/358 81/96/359 49/62/360
f 49/62/361 81/96/362 3/5/363 88/107/364
f 73/86/365 49/62/366 88/107/367 9/30/368
f 12/35/369 74/87/370 50/63/371 94/117/372
f 74/87/373 26/20/374 73/86/375 50/63/376
f 50/63/377 73/86/378 9/30/379 87/105/380
f 94/117/381 50/63/382 87/105/383 5/8/384
