# This file uses centimeters as units for non-parametric coordinates.

mtllib egg.mtl
g default
v -1.637080 1.402312 1.637080
v 1.637080 1.402312 1.637080
v -1.520744 5.697483 1.520744
v 1.520744 5.697483 1.520744
v -1.520744 5.697483 -1.520744
v 1.520744 5.697482 -1.520744
v -1.637080 1.402312 -1.637080
v 1.637080 1.402312 -1.637080
v -1.877610 6.215111 -0.000000
v 2.055755 3.461935 -2.055755
v 0.000000 0.892075 -2.056345
v -2.055755 3.461935 -2.055755
v 2.056345 0.892075 -0.000000
v -2.056345 0.892075 0.000000
v 0.000000 0.892075 2.056345
v 2.055755 3.461935 2.055755
v 0.000000 6.215111 1.877610
v -2.055755 3.461935 2.055755
v 1.877610 6.215111 0.000000
v 0.000000 6.215111 -1.877610
v 0.000000 3.494620 2.795695
v 0.000000 7.414110 -0.000000
v 0.000000 3.494620 -2.795694
v 0.000000 0.172744 0.000000
v 2.795694 3.494620 0.000000
v -2.795694 3.494620 0.000000
v -1.055369 2.112450 2.470012
v 1.055369 2.112450 2.470012
v 1.001112 4.885579 2.343030
v -1.001113 4.885579 2.343030
v -0.941395 6.810967 0.941395
v 0.941395 6.810967 0.941395
v 0.941395 6.810967 -0.941395
v -0.941395 6.810967 -0.941395
v -1.001113 4.885579 -2.343030
v 1.001113 4.885579 -2.343030
v 1.055369 2.112450 -2.470012
v -1.055369 2.112450 -2.470012
v -1.023246 0.496779 -1.023246
v 1.023246 0.496779 -1.023246
v 1.023246 0.496779 1.023246
v -1.023246 0.496779 1.023246
v 2.470012 2.112450 1.055369
v 2.470012 2.112450 -1.055369
v 2.343030 4.885579 -1.001112
v 2.343030 4.885579 1.001112
v -2.470012 2.112450 -1.055369
v -2.470012 2.112450 1.055369
v -2.343030 4.885579 1.001112
v -2.343030 4.885579 -1.001112
v -0.000000 2.015418 2.649649
v 1.118499 3.481755 2.613522
v 0.000000 4.983301 2.496700
v -1.118499 3.481755 2.613521
v 0.000000 7.076079 1.006028
v 1.006028 7.076079 0.000000
v 0.000000 7.076080 -1.006028
v -1.006028 7.076079 -0.000000
v -0.000000 4.983301 -2.496699
v 1.118499 3.481755 -2.613522
v 0.000000 2.015418 -2.649649
v -1.118499 3.481755 -2.613521
v -0.000000 0.313306 -1.094382
v 1.094382 0.313306 -0.000000
v 0.000000 0.313306 1.094382
v -1.094382 0.313306 0.000000
v 2.649649 2.015418 0.000000
v 2.613522 3.481755 -1.118499
v 2.496700 4.983301 -0.000000
v 2.613521 3.481755 1.118499
v -2.649649 2.015418 -0.000000
v -2.613522 3.481755 1.118499
v -2.496700 4.983301 0.000000
v -2.613521 3.481755 -1.118499
v -0.967016 1.058367 1.917360
v 0.967016 1.058367 1.917360
v 1.936713 2.205323 1.936713
v 1.849486 4.778275 1.849486
v 0.888970 6.049804 1.762613
v -0.888970 6.049804 1.762613
v -1.849486 4.778275 1.849486
v -1.936713 2.205323 1.936713
v 1.762613 6.049804 0.888970
v 1.762613 6.049804 -0.888970
v 0.888970 6.049804 -1.762613
v -0.888970 6.049804 -1.762613
v -1.762613 6.049804 -0.888970
v -1.762613 6.049804 0.888970
v 1.849486 4.778275 -1.849486
v 1.936713 2.205323 -1.936713
v 0.967016 1.058367 -1.917360
v -0.967016 1.058367 -1.917360
v -1.936713 2.205323 -1.936713
v -1.849486 4.778275 -1.849486
v 1.917360 1.058367 -0.967016
v 1.917360 1.058367 0.967016
v -1.917360 1.058367 0.967016
v -1.917360 1.058367 -0.967016
vt 0.390038 0.060150
vt 0.390038 0.939850
vt 0.609962 0.060150
vt 0.609962 0.939850
vt 0.390038 0.280075
vt 0.609962 0.280075
vt 0.390038 0.500000
vt 0.170113 0.280075
vt 0.609962 0.500000
vt 0.829887 0.280075
vt 0.390038 0.719925
vt 0.170113 0.060150
vt 0.609962 0.719925
vt 0.829887 0.060150
vt 0.500000 0.170113
vt 0.500000 0.390038
vt 0.500000 0.609962
vt 0.500000 0.829887
vt 0.719925 0.170113
vt 0.280075 0.170113
vt 0.500000 0.060150
vt 0.500000 0.939850
vt 0.609962 0.170113
vt 0.500000 0.280075
vt 0.390038 0.170113
vt 0.609962 0.390038
vt 0.719925 0.280075
vt 0.500000 0.500000
vt 0.390038 0.390038
vt 0.280075 0.280075
vt 0.609962 0.609962
vt 0.829887 0.170113
vt 0.500000 0.719925
vt 0.390038 0.609962
vt 0.170113 0.170113
vt 0.609962 0.829887
vt 0.719925 0.060150
vt 0.390038 0.829887
vt 0.280075 0.060150
vt 0.445019 0.115132
vt 0.554981 0.115132
vt 0.554981 0.225094
vt 0.445019 0.225094
vt 0.445019 0.335056
vt 0.554981 0.335056
vt 0.554981 0.445019
vt 0.445019 0.445019
vt 0.445019 0.554981
vt 0.554981 0.554981
vt 0.554981 0.664944
vt 0.445019 0.664944
vt 0.445019 0.774906
vt 0.554981 0.774906
vt 0.554981 0.884868
vt 0.445019 0.884868
vt 0.664944 0.115132
vt 0.774906 0.115132
vt 0.774906 0.225094
vt 0.664944 0.225094
vt 0.225094 0.115132
vt 0.335056 0.115132
vt 0.335056 0.225094
vt 0.225094 0.225094
vt 0.500000 0.115132
vt 0.554981 0.170113
vt 0.500000 0.225094
vt 0.445019 0.170113
vt 0.500000 0.335056
vt 0.554981 0.390038
vt 0.500000 0.445019
vt 0.445019 0.390038
vt 0.500000 0.554981
vt 0.554981 0.609962
vt 0.500000 0.664944
vt 0.445019 0.609962
vt 0.500000 0.774906
vt 0.554981 0.829887
vt 0.500000 0.884868
vt 0.445019 0.829887
vt 0.719925 0.115132
vt 0.774906 0.170113
vt 0.719925 0.225094
vt 0.664944 0.170113
vt 0.280075 0.115132
vt 0.335056 0.170113
vt 0.280075 0.225094
vt 0.225094 0.170113
vt 0.445019 0.060150
vt 0.445019 0.939850
vt 0.554981 0.060150
vt 0.554981 0.939850
vt 0.609962 0.115132
vt 0.609962 0.225094
vt 0.554981 0.280075
vt 0.445019 0.280075
vt 0.390038 0.225094
vt 0.390038 0.115132
vt 0.609962 0.335056
vt 0.664944 0.280075
vt 0.609962 0.445019
vt 0.774906 0.280075
vt 0.554981 0.500000
vt 0.445019 0.500000
vt 0.390038 0.445019
vt 0.225094 0.280075
vt 0.390038 0.335056
vt 0.335056 0.280075
vt 0.609962 0.554981
vt 0.829887 0.225094
vt 0.609962 0.664944
vt 0.829887 0.115132
vt 0.554981 0.719925
vt 0.445019 0.719925
vt 0.390038 0.664944
vt 0.170113 0.115132
vt 0.390038 0.554981
vt 0.170113 0.225094
vt 0.609962 0.774906
vt 0.774906 0.060150
vt 0.609962 0.884868
vt 0.664944 0.060150
vt 0.390038 0.884868
vt 0.335056 0.060150
vt 0.390038 0.774906
vt 0.225094 0.060150
vn -0.600662 -0.527645 0.600662
vn -0.328440 -0.632576 0.701409
vn -0.333960 -0.259007 0.906303
vn -0.686041 -0.242269 0.686041
vn -0.000000 -0.673737 0.738971
vn -0.000000 -0.277501 0.960725
vn 0.000000 0.048562 0.998820
vn -0.340071 0.047074 0.939221
vn -0.706417 0.044172 0.706417
vn 0.328440 -0.632576 0.701409
vn 0.333960 -0.259008 0.906303
vn 0.600662 -0.527645 0.600662
vn 0.686042 -0.242269 0.686041
vn 0.706417 0.044172 0.706417
vn 0.340071 0.047074 0.939221
vn 0.327324 0.306409 0.893853
vn 0.000000 0.320024 0.947410
vn 0.675996 0.293356 0.675996
vn 0.618894 0.483674 0.618894
vn 0.345062 0.557017 0.755423
vn -0.000000 0.590052 0.807366
vn -0.327324 0.306409 0.893853
vn -0.675997 0.293356 0.675996
vn -0.345062 0.557017 0.755423
vn -0.618894 0.483674 0.618894
vn -0.448795 0.772765 0.448795
vn -0.755424 0.557017 0.345062
vn -0.000000 0.859835 0.510573
vn 0.000000 1.000000 -0.000000
vn -0.510573 0.859835 -0.000000
vn -0.807366 0.590052 -0.000000
vn 0.448795 0.772766 0.448795
vn 0.755423 0.557017 0.345062
vn 0.807366 0.590052 -0.000000
vn 0.510573 0.859835 -0.000000
vn 0.448795 0.772765 -0.448795
vn 0.000000 0.859835 -0.510573
vn 0.755423 0.557017 -0.345062
vn 0.618894 0.483674 -0.618894
vn 0.345062 0.557016 -0.755424
vn 0.000000 0.590051 -0.807366
vn -0.448795 0.772765 -0.448795
vn -0.755423 0.557017 -0.345062
vn -0.345062 0.557017 -0.755423
vn -0.618894 0.483674 -0.618894
vn -0.327324 0.306408 -0.893853
vn -0.675996 0.293356 -0.675996
vn -0.000000 0.320024 -0.947410
vn -0.000000 0.048562 -0.998820
vn -0.340071 0.047074 -0.939221
vn -0.706417 0.044172 -0.706417
vn 0.327324 0.306409 -0.893853
vn 0.675997 0.293356 -0.675996
vn 0.706417 0.044172 -0.706417
vn 0.340071 0.047074 -0.939221
vn 0.333960 -0.259007 -0.906303
vn -0.000000 -0.277501 -0.960725
vn 0.686041 -0.242269 -0.686042
vn 0.600662 -0.527645 -0.600662
vn 0.328440 -0.632576 -0.701409
vn -0.000000 -0.673737 -0.738971
vn -0.333960 -0.259007 -0.906304
vn -0.686042 -0.242269 -0.686041
vn -0.328440 -0.632576 -0.701409
vn -0.600662 -0.527645 -0.600662
vn -0.337101 -0.879049 -0.337101
vn -0.701409 -0.632576 -0.328440
vn -0.000000 -0.938359 -0.345663
vn -0.000000 -1.000000 -0.000000
vn -0.345663 -0.938359 -0.000000
vn -0.738971 -0.673737 0.000000
vn 0.337101 -0.879049 -0.337101
vn 0.701409 -0.632576 -0.328440
vn 0.738971 -0.673737 0.000000
vn 0.345663 -0.938359 0.000000
vn 0.337101 -0.879049 0.337101
vn -0.000000 -0.938359 0.345663
vn 0.701409 -0.632576 0.328440
vn -0.337101 -0.879049 0.337101
vn -0.701409 -0.632576 0.328440
vn 0.906304 -0.259007 0.333960
vn 0.960725 -0.277501 0.000000
vn 0.998820 0.048562 0.000000
vn 0.939221 0.047074 0.340071
vn 0.906303 -0.259007 -0.333960
vn 0.939221 0.047074 -0.340071
vn 0.893853 0.306409 -0.327324
vn 0.947410 0.320024 -0.000000
vn 0.893853 0.306408 0.327324
vn -0.906304 -0.259007 -0.333960
vn -0.960725 -0.277501 -0.000000
vn -0.998820 0.048562 -0.000000
vn -0.939221 0.047074 -0.340071
vn -0.906304 -0.259007 0.333960
vn -0.939221 0.047074 0.340071
vn -0.893853 0.306409 0.327324
vn -0.947410 0.320024 -0.000000
vn -0.893853 0.306408 -0.327324
s 1
g egg_0
usemtl initialShadingGroup
f 1/1/1 75/88/2 27/40/3 82/97/4
f 75/88/2 15/21/5 51/64/6 27/40/3
f 27/40/3 51/64/6 21/15/7 54/67/8
f 82/97/4 27/40/3 54/67/8 18/25/9
f 15/21/5 76/90/10 28/41/11 51/64/6
f 76/90/10 2/3/12 77/92/13 28/41/11
f 28/41/11 77/92/13 16/23/14 52/65/15
f 51/64/6 28/41/11 52/65/15 21/15/7
f 21/15/7 52/65/15 29/42/16 53/66/17
f 52/65/15 16/23/14 78/93/18 29/42/16
f 29/42/16 78/93/18 4/6/19 79/94/20
f 53/66/17 29/42/16 79/94/20 17/24/21
f 18/25/9 54/67/8 30/43/22 81/96/23
f 54/67/8 21/15/7 53/66/17 30/43/22
f 30/43/22 53/66/17 17/24/21 80/95/24
f 81/96/23 30/43/22 80/95/24 3/5/25
f 3/5/25 80/95/24 31/44/26 88/106/27
f 80/95/24 17/24/21 55/68/28 31/44/26
f 31/44/26 55/68/28 22/16/29 58/71/30
f 88/106/27 31/44/26 58/71/30 9/29/31
f 17/24/21 79/94/20 32/45/32 55/68/28
f 79/94/20 4/6/19 83/98/33 32/45/32
f 32/45/32 83/98/33 19/26/34 56/69/35
f 55/68/28 32/45/32 56/69/35 22/16/29
f 22/16/29 56/69/35 33/46/36 57/70/37
f 56/69/35 19/26/34 84/100/38 33/46/36
f 33/46/36 84/100/38 6/9/39 85/102/40
f 57/70/37 33/46/36 85/102/40 20/28/41
f 9/29/31 58/71/30 34/47/42 87/104/43
f 58/71/30 22/16/29 57/70/37 34/47/42
f 34/47/42 57/70/37 20/28/41 86/103/44
f 87/104/43 34/47/42 86/103/44 5/7/45
f 5/7/45 86/103/44 35/48/46 94/116/47
f 86/103/44 20/28/41 59/72/48 35/48/46
f 35/48/46 59/72/48 23/17/49 62/75/50
f 94/116/47 35/48/46 62/75/50 12/34/51
f 20/28/41 85/102/40 36/49/52 59/72/48
f 85/102/40 6/9/39 89/108/53 36/49/52
f 36/49/52 89/108/53 10/31/54 60/73/55
f 59/72/48 36/49/52 60/73/55 23/17/49
f 23/17/49 60/73/55 37/50/56 61/74/57
f 60/73/55 10/31/54 90/110/58 37/50/56
f 37/50/56 90/110/58 8/13/59 91/112/60
f 61/74/57 37/50/56 91/112/60 11/33/61
f 12/34/51 62/75/50 38/51/62 93/114/63
f 62/75/50 23/17/49 61/74/57 38/51/62
f 38/51/62 61/74/57 11/33/61 92/113/64
f 93/114/63 38/51/62 92/113/64 7/11/65
f 7/11/65 92/113/64 39/52/66 98/124/67
f 92/113/64 11/33/61 63/76/68 39/52/66
f 39/52/66 63/76/68 24/18/69 66/79/70
f 98/124/67 39/52/66 66/79/70 14/38/71
f 11/33/61 91/112/60 40/53/72 63/76/68
f 91/112/60 8/13/59 95/118/73 40/53/72
f 40/53/72 95/118/73 13/36/74 64/77/75
f 63/76/68 40/53/72 64/77/75 24/18/69
f 24/18/69 64/77/75 41/54/76 65/78/77
f 64/77/75 13/36/74 96/120/78 41/54/76
f 41/54/76 96/120/78 2/4/12 76/91/10
f 65/78/77 41/54/76 76/91/10 15/22/5
f 14/38/71 66/79/70 42/55/79 97/122/80
f 66/79/70 24/18/69 65/78/77 42/55/79
f 42/55/79 65/78/77 15/22/5 75/89/2
f 97/122/80 42/55/79 75/89/2 1/2/1
f 2/3/12 96/121/78 43/56/81 77/92/13
f 96/121/78 13/37/74 67/80/82 43/56/81
f 43/56/81 67/80/82 25/19/83 70/83/84
f 77/92/13 43/56/81 70/83/84 16/23/14
f 13/37/74 95/119/73 44/57/85 67/80/82
f 95/119/73 8/14/59 90/111/58 44/57/85
f 44/57/85 90/111/58 10/32/54 68/81/86
f 67/80/82 44/57/85 68/81/86 25/19/83
f 25/19/83 68/81/86 45/58/87 69/82/88
f 68/81/86 10/32/54 89/109/53 45/58/87
f 45/58/87 89/109/53 6/10/39 84/101/38
f 69/82/88 45/58/87 84/101/38 19/27/34
f 16/23/14 70/83/84 46/59/89 78/93/18
f 70/83/84 25/19/83 69/82/88 46/59/89
f 46/59/89 69/82/88 19/27/34 83/99/33
f 78/93/18 46/59/89 83/99/33 4/6/19
f 7/12/65 98/125/67 47/60/90 93/115/63
f 98/125/67 14/39/71 71/84/91 47/60/90
f 47/60/90 71/84/91 26/20/92 74/87/93
f 93/115/63 47/60/90 74/87/93 12/35/51
f 14/39/71 97/123/80 48/61/94 71/84/91
f 97/123/80 1/1/1 82/97/4 48/61/94
f 48/61/94 82/97/4 18/25/9 72/85/95
f 71/84/91 48/61/94 72/85/95 26/20/92
f 26/20/92 72/85/95 49/62/96 73/86/97
f 72/85/95 18/25/9 81/96/23 49/62/96
f 49/62/96 81/96/23 3/5/25 88/107/27
f 73/86/97 49/62/96 88/107/27 9/30/31
f 12/35/51 74/87/93 50/63/98 94/117/47
f 74/87/93 26/20/92 73/86/97 50/63/98
f 50/63/98 73/86/97 9/30/31 87/105/43
f 94/117/47 50/63/98 87/105/43 5/8/45
